<?xml version="1.0" encoding="UTF-8"?>
<svg id="Layer_1" xmlns="http://www.w3.org/2000/svg" viewBox="0 0 800 763.62">
  <defs>
    <style>
      .cls-1 {
        fill: #ff0005;
      }
    </style>
  </defs>
  <rect class="cls-1" x="23.38" y="65.16" width="549.08" height="418.29" rx="209.15" ry="209.15" transform="translate(177.07 -112.21) rotate(30)"/>
  <rect class="cls-1" x="254.77" y="96.09" width="549.08" height="418.29" rx="209.15" ry="209.15" transform="translate(-69.35 427.46) rotate(-41.51)"/>
  <rect class="cls-1" x="172.94" y="179.86" width="549.08" height="418.29" transform="translate(-136.18 493.43) rotate(-51.15)"/>
  <rect class="cls-1" x="158.36" y="244.87" width="313.11" height="334.37" transform="translate(-203.53 398.79) rotate(-51.15)"/>
  <path d="M574.3,0c-68.1,0-131.85,30.83-174.3,82.5C357.55,30.83,293.81,0,225.7,0c-124.45,0-225.7,101.25-225.7,225.7,0,97.45,58.11,210.17,172.71,335.03,88.2,96.08,184.14,170.48,211.44,190.99l15.84,11.9,15.84-11.9c27.3-20.51,123.25-94.91,211.45-190.99,114.61-124.85,172.72-237.58,172.72-335.03C800,101.25,698.75,0,574.3,0ZM588.42,525.06c-72.54,79.03-150.59,142.92-188.43,172.36-37.84-29.44-115.88-93.33-188.42-172.36C107.67,411.86,52.75,308.34,52.75,225.7c0-95.37,77.59-172.95,172.95-172.95,62.76,0,120.71,34.2,151.23,89.27l23.07,41.61,23.07-41.61c30.52-55.06,88.47-89.27,151.23-89.27,95.37,0,172.95,77.59,172.95,172.95,0,82.65-54.92,186.16-158.83,299.36Z"/>
</svg>