<?xml version="1.0" standalone="no"?>
<!DOCTYPE svg PUBLIC "-//W3C//DTD SVG 20010904//EN"
 "http://www.w3.org/TR/2001/REC-SVG-20010904/DTD/svg10.dtd">
<svg version="1.0" xmlns="http://www.w3.org/2000/svg"
 width="1280.000000pt" height="1280.000000pt" viewBox="0 0 1280.000000 1280.000000"
 preserveAspectRatio="xMidYMid meet">
<g transform="translate(0.000000,1280.000000) scale(0.100000,-0.100000)"
fill="#000000" stroke="none">
<path d="M6344 11260 c-23 -5 -64 -20 -91 -33 -62 -32 -144 -47 -251 -47 -96
0 -129 -12 -195 -70 -59 -52 -100 -134 -132 -260 -14 -58 -35 -133 -45 -168
-13 -41 -23 -118 -29 -221 -9 -143 -13 -167 -41 -237 -28 -69 -31 -88 -28
-154 5 -99 37 -169 121 -257 109 -117 140 -190 182 -425 23 -128 25 -159 19
-293 l-6 -150 -58 -57 c-39 -38 -84 -69 -141 -96 -151 -72 -536 -184 -679
-197 -240 -22 -313 -58 -506 -250 -135 -133 -143 -144 -170 -215 -15 -41 -49
-120 -74 -175 -26 -55 -57 -131 -70 -170 -36 -111 -83 -191 -187 -320 -129
-161 -143 -185 -267 -445 -59 -124 -116 -244 -128 -268 -41 -83 -127 -105
-209 -54 -24 16 -135 79 -247 141 -289 160 -370 210 -702 432 -398 266 -437
296 -602 470 -91 97 -195 193 -288 267 -171 136 -295 257 -346 339 -20 32 -43
64 -52 71 -9 7 -44 12 -84 12 -82 0 -91 -10 -107 -118 -8 -53 -25 -100 -66
-180 -65 -128 -86 -204 -83 -294 1 -43 -3 -72 -11 -82 -33 -39 -136 1 -220 85
-24 24 -79 96 -123 161 -44 65 -84 118 -88 118 -13 0 -23 -85 -16 -131 8 -51
36 -106 92 -186 54 -76 94 -154 94 -183 0 -16 -12 -26 -45 -41 -25 -11 -45
-23 -45 -26 0 -16 53 -73 86 -94 35 -22 45 -22 218 -20 180 2 181 2 215 -23
45 -34 51 -34 361 -45 287 -11 313 -15 398 -72 26 -18 196 -181 377 -363 182
-182 389 -380 460 -440 72 -61 182 -158 245 -216 219 -204 514 -460 548 -476
28 -13 57 -15 151 -12 139 6 193 23 276 86 33 25 93 60 133 78 151 70 243 141
340 264 37 47 124 152 193 235 235 281 272 338 359 562 27 69 56 134 66 144
55 61 108 -14 192 -271 106 -325 160 -582 169 -806 5 -117 3 -144 -20 -250
-15 -65 -47 -242 -72 -392 -49 -300 -64 -366 -101 -450 -27 -63 -46 -82 -82
-82 -42 0 -373 116 -507 178 -130 60 -219 88 -435 137 -63 15 -120 31 -127 36
-6 6 -85 31 -175 55 -158 44 -166 45 -273 41 -126 -6 -220 -31 -280 -75 -61
-46 -173 -181 -208 -252 l-32 -65 0 -175 0 -176 37 -75 c65 -130 266 -375 400
-486 266 -221 400 -330 448 -362 30 -21 237 -129 460 -239 478 -238 510 -256
510 -281 0 -39 -42 -56 -207 -84 -87 -15 -189 -30 -228 -33 -38 -4 -89 -15
-113 -25 -62 -26 -251 -215 -291 -288 -17 -33 -31 -64 -31 -70 0 -7 -25 -67
-56 -134 -51 -109 -57 -130 -61 -202 -4 -77 -3 -82 29 -135 36 -60 105 -113
166 -129 134 -36 510 -37 677 -2 116 24 146 28 352 46 205 17 299 36 413 80
47 18 141 45 210 60 69 15 161 38 205 52 113 36 396 150 566 228 185 86 206
94 252 95 83 1 329 -64 627 -166 168 -58 358 -118 423 -134 72 -18 148 -45
195 -70 102 -53 176 -67 283 -52 90 13 143 38 196 94 59 61 67 96 66 262 -2
195 -8 234 -38 248 -29 13 -45 48 -45 101 0 49 -7 61 -110 182 -97 114 -113
139 -105 164 8 26 25 32 128 40 84 8 90 10 190 71 56 35 143 88 192 118 140
85 429 332 583 500 143 155 367 430 404 495 18 32 43 73 55 90 70 101 78 120
77 182 -1 49 -11 83 -55 185 -30 69 -72 151 -93 182 -70 106 -178 187 -306
230 -92 30 -157 28 -270 -9 -52 -18 -160 -51 -239 -73 -115 -33 -168 -55 -271
-111 -70 -39 -178 -87 -239 -109 -61 -21 -133 -52 -159 -68 -70 -45 -94 -52
-224 -62 -160 -12 -160 -12 -198 109 -16 53 -42 148 -59 211 -16 63 -50 186
-75 273 -69 238 -78 297 -83 582 -6 321 4 429 52 571 40 115 145 320 228 447
39 57 57 77 74 77 23 0 53 -34 53 -60 0 -59 108 -246 253 -439 92 -123 383
-415 555 -556 241 -199 370 -265 522 -268 84 -1 107 8 184 71 28 23 83 53 130
71 85 32 99 42 556 390 204 156 224 172 475 395 375 334 671 569 791 630 78
38 454 170 635 222 65 18 138 43 161 55 63 32 328 220 328 233 0 24 -19 38
-59 43 -39 5 -45 3 -75 -31 -39 -42 -59 -45 -80 -14 -13 19 -16 60 -16 248 0
126 -5 232 -10 240 -17 27 -43 -3 -82 -96 -33 -78 -37 -99 -38 -172 0 -48 -6
-97 -14 -117 -15 -35 -63 -73 -128 -99 -35 -15 -38 -15 -63 7 -23 19 -28 34
-35 101 -12 106 -37 152 -125 231 -55 49 -85 86 -112 138 -47 88 -74 109 -142
110 -60 1 -86 -18 -96 -71 -12 -71 -210 -423 -295 -528 -67 -83 -90 -123 -90
-159 0 -14 -6 -40 -14 -58 -24 -59 -295 -291 -483 -414 -46 -30 -255 -147
-465 -260 -211 -113 -412 -222 -446 -241 -97 -53 -252 -89 -331 -77 -40 6 -55
16 -111 75 -75 77 -173 236 -280 450 -77 155 -113 211 -209 330 -71 87 -124
187 -210 391 -47 111 -73 158 -109 200 -26 30 -71 83 -99 119 -93 119 -181
189 -283 225 -25 9 -119 25 -210 36 -274 32 -300 41 -607 206 -282 152 -313
194 -313 422 1 301 39 457 152 624 98 145 105 209 54 522 -32 200 -78 397
-121 515 -38 106 -110 186 -250 275 -49 32 -107 73 -129 92 -62 56 -135 78
-212 63z m5239 -3144 c37 -81 47 -114 47 -155 0 -58 -22 -121 -43 -121 -19 0
-157 155 -157 177 0 10 16 60 36 111 25 65 40 92 52 92 12 0 32 -33 65 -104z
m-10424 -26 c84 -42 111 -110 92 -233 -7 -45 -17 -88 -23 -94 -30 -36 -110 6
-140 74 -17 38 -20 60 -16 122 5 69 28 151 43 151 3 0 23 -9 44 -20z"/>
</g>
</svg>
